HIERARCHY
ROOT Hips
{
	OFFSET 0.00000 0.00000 0.00000
	CHANNELS 6 Xposition Yposition Zposition Zrotation Yrotation Xrotation 
	JOINT LHipJoint
	{
		OFFSET 0 0 0
		CHANNELS 3 Zrotation Yrotation Xrotation
		JOINT LeftHip
		{
			OFFSET 1.09156 -1.61406 0.76500
			CHANNELS 3 Zrotation Yrotation Xrotation
			JOINT LeftKnee
			{
				OFFSET 2.33750 -6.42225 0.00000
				CHANNELS 3 Zrotation Yrotation Xrotation
				JOINT LeftAnkle
				{
					OFFSET 2.49247 -6.84800 0.00000
					CHANNELS 3 Zrotation Yrotation Xrotation
					JOINT LeftToe
					{
						OFFSET 0.15312 -0.42069 1.45461
						CHANNELS 3 Zrotation Yrotation Xrotation
						End Site
						{
							OFFSET 0.00000 -0.00000 0.77046
						}
					}
				}
			}
		}
	}
	JOINT RHipJoint
	{
		OFFSET 0 0 0
		CHANNELS 3 Zrotation Yrotation Xrotation
		JOINT RightHip
		{
			OFFSET -0.99883 -1.61406 0.76500
			CHANNELS 3 Zrotation Yrotation Xrotation
			JOINT RightKnee
			{
				OFFSET -2.36877 -6.50815 0.00000
				CHANNELS 3 Zrotation Yrotation Xrotation
				JOINT RightAnkle
				{
					OFFSET -2.53452 -6.96353 0.00000
					CHANNELS 3 Zrotation Yrotation Xrotation
					JOINT RightToe
					{
						OFFSET -0.13156 -0.36145 1.63237
						CHANNELS 3 Zrotation Yrotation Xrotation
						End Site
						{
							OFFSET -0.00000 -0.00000 0.84979
						}
					}
				}
			}
		}
	}
	JOINT lowerback
	{
		OFFSET 0 0 0
		CHANNELS 3 Zrotation Yrotation Xrotation
		JOINT Chest
		{
			OFFSET -0.02431 1.98242 -0.13616
			CHANNELS 3 Zrotation Yrotation Xrotation
			JOINT Chest2
			{
				OFFSET 0.03629 1.98974 -0.02954
				CHANNELS 3 Zrotation Yrotation Xrotation
				JOINT lowerneck
				{
					OFFSET 0 0 0
					CHANNELS 3 Zrotation Yrotation Xrotation
					JOINT Neck
					{
						OFFSET 0.09349 1.40783 0.22333
						CHANNELS 3 Zrotation Yrotation Xrotation
						JOINT Head
						{
							OFFSET -0.04273 1.44500 -0.06495
							CHANNELS 3 Zrotation Yrotation Xrotation
							End Site
							{
								OFFSET -0.02251 1.44600 -0.04544
							}
						}
					}
				}
				JOINT LeftCollar
				{
					OFFSET 0 0 0
					CHANNELS 3 Zrotation Yrotation Xrotation
					JOINT LeftShoulder
					{
						OFFSET 3.49137 0.85126 -0.29740
CHANNELS 3 Zrotation Xrotation Yrotation
						JOINT LeftElbow
						{
OFFSET 0 -5.060350 0.000000
CHANNELS 3 Zrotation Xrotation Yrotation
							JOINT LeftWrist
							{
OFFSET 0 -3.147800 0.000000
CHANNELS 3 Zrotation Xrotation Yrotation
								JOINT lhand
								{
									OFFSET 0 0 0
CHANNELS 3 Zrotation Xrotation Yrotation
									JOINT LFingers
									{
OFFSET 0 -0.606750 0.000000
CHANNELS 3 Zrotation Xrotation Yrotation
										End Site
										{
OFFSET 0 -0.489180 0.000000
										}
									}
								}
								JOINT LThumb
								{
OFFSET 0 0.000000 0.000000
CHANNELS 3 Zrotation Xrotation Yrotation
									End Site
									{
OFFSET 0 -0.496640 0.496640
									}
								}
							}
						}
					}
				}
				JOINT RightCollar
				{
					OFFSET 0 0 0
					CHANNELS 3 Zrotation Yrotation Xrotation
					JOINT RightShoulder
					{
						OFFSET -3.28101 0.69707 0.00747
CHANNELS 3 Zrotation Xrotation Yrotation
						JOINT RightElbow
						{
OFFSET 0 -5.122730 -0.000000
CHANNELS 3 Zrotation Xrotation Yrotation
							JOINT RightWrist
							{
OFFSET 0 -3.422000 0.000000
CHANNELS 3 Zrotation Xrotation Yrotation
								JOINT rhand
								{
									OFFSET 0 0 0
CHANNELS 3 Zrotation Xrotation Yrotation
									JOINT RFingers
									{
OFFSET 0 -0.704600 0.000000
CHANNELS 3 Zrotation Xrotation Yrotation
										End Site
										{
OFFSET 0 -0.568070 0.000000
										}
									}
								}
								JOINT RThumb
								{
OFFSET 0 0.000000 0.000000
CHANNELS 3 Zrotation Xrotation Yrotation
									End Site
									{
OFFSET 0 -0.576740 0.576740
									}
								}
							}
						}
					}
				}
			}
		}
	}
}
MOTION
Frames: 11
Frame Time: 0.008333333333333333
-13.505700 16.151900 0.164000 -173.804000 -2.645800 -175.911000 0.000000 0.000000 0.000000 -17.221900 -2.938800 -7.746400 2.446000 9.739000 28.135700 1.368000 9.568500 -27.422000 0.020000 -0.912500 -2.508200 0.000000 0.000000 0.000000 17.521800 7.109800 -4.413600 -1.232100 -7.039400 19.832100 -0.022300 -8.152200 -12.061300 -0.502200 4.542800 -12.609000 -0.636200 1.086000 -4.651200 0.132500 1.451500 -0.668400 0.582200 0.708900 1.900400 5.726700 6.837400 0.106900 0.507600 8.728500 -14.859100 -1.126100 3.565000 -4.722300 -0.000000 -0.000000 0.000000 2.595100 -6.740900 -17.766800 5.821500 -9.964100 0.507900 20.288600 29.249200 -44.527800 0.000000 0.000000 0.000000 -7.125000 0.000000 0.000000 -32.341000 74.279500 22.938300 -0.000000 -0.000000 0.000000 4.088000 -1.515800 16.796100 -9.087100 -15.299100 -1.223000 -20.429800 2.692800 -28.510600 0.000000 0.000000 0.000000 7.125000 0.000000 -0.000000 5.931300 0.023000 5.961000
-13.504478 16.153498 0.168606 -173.809639 -2.598899 -175.918519 0.000000 0.000000 0.000000 -17.234119 -3.002055 -7.776571 2.460662 9.765975 28.222077 1.346100 9.707605 -27.370024 0.029211 -1.101890 -3.029280 0.000000 0.000000 0.000000 17.518228 7.129726 -4.367827 -1.215276 -6.993063 19.694687 -0.013183 -8.191300 -11.939207 -0.596002 4.941224 -13.741109 -0.587983 1.091169 -4.647440 0.074790 1.458737 -0.622627 0.496951 0.713224 1.947865 6.230392 6.846329 -0.146121 0.124309 8.694006 -14.635498 -1.319531 3.553533 -4.548043 0.000000 0.000000 0.000000 2.661551 -6.882449 -17.472235 5.756835 -9.856012 0.496809 20.216228 29.564536 -44.593499 0.000000 0.000000 0.000000 -7.125000 0.000000 0.000000 -32.587536 74.302810 23.137465 0.000000 0.000000 0.000000 4.207555 -1.688836 16.708689 -8.993486 -15.150032 -1.198469 -20.909525 2.699943 -28.171108 0.000000 0.000000 0.000000 7.125000 0.000000 0.000000 5.608538 0.279969 5.608162
-13.507039 16.152632 0.172947 -173.583012 -2.436656 -175.911962 0.000000 0.000000 0.000000 -17.022164 -3.039268 -7.703453 2.440133 9.728109 28.100733 1.311620 9.871433 -27.247311 0.026633 -1.053206 -2.895350 0.000000 0.000000 0.000000 17.728624 7.221531 -4.507955 -1.242793 -7.068754 19.919135 -0.027205 -8.057343 -12.025978 -0.599009 4.954735 -13.779452 -0.280225 1.156253 -4.659165 0.096174 1.529848 -0.602808 0.351524 0.750979 1.981517 6.580384 6.879365 -0.297789 -0.201443 8.705877 -14.461868 -1.475043 3.569076 -4.422086 0.000000 0.000000 0.000000 2.683132 -6.938921 -17.424543 5.747773 -9.840830 0.495220 20.161715 29.650245 -44.702748 0.000000 0.000000 0.000000 -7.125000 0.000000 0.000000 -32.922315 74.365622 23.429536 0.000000 0.000000 0.000000 4.251360 -1.832398 16.256602 -8.805030 -14.849110 -1.149743 -21.235373 2.559280 -29.000430 0.000000 0.000000 0.000000 7.125000 0.000000 0.000000 5.520419 -0.633988 5.606891
-13.514367 16.155369 0.179484 -173.775778 -2.287027 -175.686402 0.000000 0.000000 0.000000 -17.282208 -3.184706 -7.853861 2.429003 9.707536 28.034874 1.307264 9.961373 -27.284854 0.012347 -0.697921 -1.918042 0.000000 0.000000 0.000000 17.420504 7.146930 -4.890299 -1.255389 -7.103025 20.021002 -0.038954 -7.886892 -12.022998 -0.658192 5.187944 -14.445560 -0.338193 1.186986 -4.817363 -0.007207 1.573599 -0.664355 0.283464 0.771428 2.007750 6.785773 6.885275 -0.386876 -0.372768 8.695832 -14.356982 -1.559028 3.568431 -4.349267 0.000000 0.000000 0.000000 2.697386 -6.943597 -17.275513 5.754559 -9.852077 0.496412 19.856693 29.532720 -44.613490 0.000000 0.000000 0.000000 -7.125000 0.000000 0.000000 -33.056231 74.184485 23.407288 0.000000 0.000000 0.000000 4.282858 -1.523686 16.532496 -9.070602 -15.272594 -1.218876 -21.150614 1.815877 -29.567453 0.000000 0.000000 0.000000 7.125000 0.000000 0.000000 5.641942 -1.198000 5.786773
-13.531168 16.159950 0.191662 -175.116319 -2.149897 -175.071858 0.000000 0.000000 0.000000 -18.847756 -3.527212 -8.314804 2.403425 9.660067 27.882839 1.300464 10.076615 -27.325261 0.002919 -0.293529 -0.806608 0.000000 0.000000 0.000000 15.704070 6.663153 -5.915725 -1.279936 -7.169424 20.218400 -0.082346 -7.243618 -12.027780 -0.659146 5.192733 -14.459107 -1.470178 1.129437 -5.259249 -0.434047 1.558616 -0.825762 0.485844 0.750721 2.070406 7.056344 6.879903 -0.526443 -0.630571 8.660461 -14.181919 -1.677645 3.560736 -4.235597 0.000000 0.000000 0.000000 2.694531 -6.952543 -17.010631 5.750123 -9.844773 0.495637 19.172862 29.098211 -44.248425 0.000000 0.000000 0.000000 -7.125000 0.000000 0.000000 -32.973326 73.654833 22.986931 0.000000 0.000000 0.000000 4.223450 -1.357534 17.333764 -9.264316 -15.580503 -1.270214 -20.938821 1.046946 -29.245478 0.000000 0.000000 0.000000 7.125000 0.000000 0.000000 5.724100 -0.827022 5.834967
-13.523339 16.160291 0.191952 -174.870968 -2.074689 -175.300808 0.000000 0.000000 0.000000 -18.578203 -3.425953 -8.001331 2.372257 9.601822 27.696661 1.299699 10.073185 -27.317302 0.000830 -0.187811 -0.516054 0.000000 0.000000 0.000000 16.035730 6.811638 -5.773896 -1.315360 -7.264136 20.500469 -0.090294 -7.288710 -12.224931 -0.632007 5.086336 -14.155157 -1.334928 1.126838 -5.039220 -0.332544 1.548212 -0.750617 0.509791 0.749046 2.025675 6.962540 6.925456 -0.440630 -0.533052 8.736838 -14.245969 -1.636973 3.594384 -4.281174 0.000000 0.000000 0.000000 2.676082 -6.962355 -16.877233 5.743723 -9.834115 0.494531 18.800856 28.810854 -43.968513 0.000000 0.000000 0.000000 -7.125000 0.000000 0.000000 -32.750047 73.304610 22.586135 0.000000 0.000000 0.000000 4.160410 -1.427029 17.368250 -9.203483 -15.483976 -1.253920 -20.651344 1.249707 -29.320371 0.000000 0.000000 0.000000 7.125000 0.000000 0.000000 5.900346 -0.847499 6.019070
-13.522376 16.157982 0.194564 -174.946145 -1.983285 -175.382648 0.000000 0.000000 0.000000 -18.689986 -3.393362 -7.799721 2.338186 9.537594 27.491843 1.270568 10.205929 -27.210701 0.002015 -0.282846 -0.777168 0.000000 0.000000 0.000000 15.936977 6.804774 -5.868421 -1.352501 -7.361847 20.792109 -0.115402 -7.033128 -12.376980 -0.593419 4.930949 -13.711975 -1.413438 1.126783 -4.932012 -0.333399 1.552171 -0.718889 0.551204 0.751472 1.996298 6.693493 6.955199 -0.341567 -0.307759 8.801402 -14.324660 -1.525567 3.624378 -4.349283 0.000000 0.000000 0.000000 2.635395 -6.918816 -17.172067 5.769550 -9.877192 0.498932 19.069672 28.710474 -43.984699 0.000000 0.000000 0.000000 -7.125000 0.000000 0.000000 -32.475129 73.414685 22.459581 0.000000 0.000000 0.000000 4.066943 -1.514778 17.088608 -9.067051 -15.267119 -1.217775 -20.567542 1.484663 -30.006743 0.000000 0.000000 0.000000 7.125000 0.000000 0.000000 6.036384 -1.531513 6.230087
-13.527912 16.154930 0.201145 -175.371768 -1.893344 -175.221671 0.000000 0.000000 0.000000 -19.213185 -3.588964 -7.842624 2.324874 9.512332 27.411411 1.239781 10.457876 -27.187430 0.002063 -0.292699 -0.804163 0.000000 0.000000 0.000000 15.380948 6.641884 -6.205808 -1.365673 -7.396441 20.895306 -0.138331 -6.700031 -12.402044 -0.595374 4.939303 -13.735685 -1.743481 1.102614 -5.038360 -0.453065 1.538284 -0.742434 0.614239 0.740625 2.026340 6.447465 7.004701 -0.168626 -0.191834 8.888749 -14.484645 -1.461020 3.666141 -4.455273 0.000000 0.000000 0.000000 2.591590 -6.865489 -17.721118 5.813875 -9.951324 0.506582 19.651841 28.757181 -44.219327 0.000000 0.000000 0.000000 -7.125000 0.000000 0.000000 -32.346893 73.807941 22.629048 0.000000 0.000000 0.000000 3.967960 -1.533770 17.184994 -9.020825 -15.193616 -1.205564 -20.697511 1.107970 -30.650197 0.000000 0.000000 0.000000 7.125000 0.000000 0.000000 6.045303 -2.213188 6.308734
-13.529217 16.153085 0.206325 -175.475811 -1.812766 -175.197516 0.000000 0.000000 0.000000 -19.373881 -3.791233 -7.770857 2.321106 9.505075 27.388480 1.209922 10.735333 -27.194482 0.001340 -0.235263 -0.646379 0.000000 0.000000 0.000000 15.239880 6.597610 -6.309111 -1.370971 -7.410116 20.936249 -0.138504 -6.649143 -12.347964 -0.622363 5.048039 -14.045769 -1.795049 1.081558 -5.059783 -0.487151 1.514993 -0.707903 0.607519 0.728231 2.073866 5.359080 7.118418 0.401369 0.806301 9.154494 -15.314284 -0.985129 3.755659 -4.677602 0.000000 0.000000 0.000000 2.574435 -6.892113 -18.012535 5.822966 -9.966522 0.508175 20.170410 29.051490 -44.449159 0.000000 0.000000 0.000000 -7.125000 0.000000 0.000000 -32.288512 74.175627 22.830293 0.000000 0.000000 0.000000 3.940763 -1.528114 17.297147 -9.054223 -15.246809 -1.214332 -20.712693 0.781009 -31.169462 0.000000 0.000000 0.000000 7.125000 0.000000 0.000000 6.106030 -2.744350 6.427601
-13.527620 16.153343 0.210358 -175.399422 -1.735479 -175.270955 0.000000 0.000000 0.000000 -19.316741 -3.908611 -7.662964 2.325442 9.513304 27.414630 1.183161 10.945974 -27.172205 0.001054 -0.209642 -0.576078 0.000000 0.000000 0.000000 15.336566 6.610855 -6.241894 -1.369659 -7.406671 20.926004 -0.125107 -6.691035 -12.154717 -0.691945 5.312122 -14.802331 -1.691519 1.078346 -4.993035 -0.479619 1.507187 -0.645542 0.556174 0.725745 2.103365 4.453937 7.238716 0.784190 1.783764 9.414224 -15.980745 -0.537491 3.839001 -4.818789 0.000000 0.000000 0.000000 2.593939 -6.956578 -18.182208 5.817839 -9.957941 0.507264 20.488277 29.238301 -44.554506 0.000000 0.000000 0.000000 -7.125000 0.000000 0.000000 -32.171106 74.374378 22.874346 0.000000 0.000000 0.000000 3.966592 -1.505622 17.103060 -9.122557 -15.355527 -1.232372 -20.431924 0.916334 -31.605832 0.000000 0.000000 0.000000 7.125000 0.000000 0.000000 6.324542 -3.130910 6.700989
-13.523947 16.153781 0.215892 -175.296993 -1.724025 -175.278449 0.000000 0.000000 0.000000 -19.185497 -3.942078 -7.734872 2.343857 9.548257 27.525763 1.175454 10.991724 -27.153706 0.001997 -0.276765 -0.760460 0.000000 0.000000 0.000000 15.474980 6.610168 -6.174520 -1.352862 -7.363037 20.795491 -0.105564 -6.766193 -11.883850 -0.746471 5.518452 -15.393602 -1.581223 1.065700 -4.947622 -0.462853 1.485023 -0.619200 0.509581 0.716109 2.107868 4.580278 7.294951 0.688963 1.722371 9.478402 -15.909004 -0.572652 3.869811 -4.771379 0.000000 0.000000 0.000000 2.620808 -6.981521 -18.515599 5.839762 -9.994636 0.511033 20.541538 29.003605 -44.531107 0.000000 0.000000 0.000000 -7.125000 0.000000 0.000000 -32.050856 74.376181 22.786009 0.000000 0.000000 0.000000 3.990079 -1.489656 16.849965 -9.172198 -15.434477 -1.245539 -20.237099 1.175623 -31.650387 0.000000 0.000000 0.000000 7.125000 0.000000 0.000000 6.441089 -3.136783 6.826415
